<svg width="30" height="30" viewBox="0 0 30 30" fill="none" xmlns="http://www.w3.org/2000/svg">
<path d="M16.875 13H28.125C28.6223 13 29.0992 13.2107 29.4508 13.5858C29.8025 13.9609 30 14.4696 30 15C30 15.5304 29.8025 16.0391 29.4508 16.4142C29.0992 16.7893 28.6223 17 28.125 17H16.875H1.875C1.37772 17 0.900806 16.7893 0.549175 16.4142C0.197544 16.0391 0 15.5304 0 15C0 14.4696 0.197544 13.9609 0.549175 13.5858C0.900806 13.2107 1.37772 13 1.875 13H16.875Z" fill="#FFA028"/>
<path d="M17 16.875L17 28.125C17 28.6223 16.7893 29.0992 16.4142 29.4508C16.0391 29.8025 15.5304 30 15 30C14.4696 30 13.9609 29.8025 13.5858 29.4508C13.2107 29.0992 13 28.6223 13 28.125L13 16.875L13 1.875C13 1.37772 13.2107 0.900806 13.5858 0.549175C13.9609 0.197544 14.4696 -1.10609e-07 15 -8.74228e-08C15.5304 -6.42368e-08 16.0391 0.197544 16.4142 0.549175C16.7893 0.900806 17 1.37772 17 1.875L17 16.875Z" fill="#FFA028"/>
</svg>
