<svg xmlns="http://www.w3.org/2000/svg" x="0px" y="0px" viewBox="0 0 440 400">
<rect fill="#F8F8F8" x="0" width="440" height="400"/>
<g fill="#784feb">
    <path d="M297.1,136.7H142.9c-1.5,0-2.8,1.2-2.8,2.8v121.2c0,1.5,1.2,2.8,2.8,2.8h154.2c1.5,0,2.8-1.2,2.8-2.8V139.4C299.9,137.9,298.6,136.7,297.1,136.7z M294.3,257.8H145.7V142.2h148.7V257.8z"/>
    <path d="M184.2,197.6c8.5,0,15.3-6.9,15.3-15.3c0-8.5-6.9-15.3-15.3-15.3c-8.5,0-15.3,6.9-15.3,15.3C168.9,190.7,175.7,197.6,184.2,197.6z M184.2,172.5c5.4,0,9.8,4.4,9.8,9.8s-4.4,9.8-9.8,9.8s-9.8-4.4-9.8-9.8S178.8,172.5,184.2,172.5z"/>
    <path d="M159.4,246.8c0.6,0,1.3-0.2,1.8-0.7l44.9-39.5l28.4,28.4c1.1,1.1,2.8,1.1,3.9,0s1.1-2.8,0-3.9l-13.2-13.2l25.3-27.7l31,28.4c1.1,1,2.9,1,3.9-0.2s1-2.9-0.2-3.9l-33-30.3c-0.5-0.5-1.3-0.7-2-0.7c-0.7,0-1.4,0.4-1.9,0.9l-27,29.5l-13.1-13.1c-1-1-2.7-1.1-3.8-0.1L157.6,242c-1.1,1-1.3,2.7-0.2,3.9C157.9,246.5,158.7,246.8,159.4,246.8z"/>
</g>
</svg>
