<svg width="16" height="16" viewBox="0 0 16 16" fill="none" xmlns="http://www.w3.org/2000/svg">
<path d="M8.04511 3.23598C8.97846 3.23598 9.89085 3.51275 10.6669 4.03129C11.443 4.54983 12.0478 5.28685 12.405 6.14916C12.7622 7.01146 12.8556 7.96031 12.6735 8.87573C12.4914 9.79115 12.042 10.632 11.382 11.292C10.722 11.952 9.88118 12.4014 8.96576 12.5835C8.05034 12.7656 7.10149 12.6721 6.23919 12.315C5.37688 11.9578 4.63986 11.3529 4.12132 10.5769C3.60278 9.80082 3.32601 8.88843 3.32601 7.95508L5.56758 7.95508C5.56758 8.44509 5.71289 8.92409 5.98512 9.33152C6.25735 9.73895 6.64429 10.0565 7.097 10.244C7.54971 10.4315 8.04786 10.4806 8.52845 10.385C9.00904 10.2894 9.4505 10.0534 9.79699 9.70696C10.1435 9.36047 10.3794 8.91901 10.475 8.43842C10.5706 7.95783 10.5216 7.45968 10.334 7.00697C10.1465 6.55426 9.82898 6.16732 9.42155 5.89509C9.01412 5.62286 8.53512 5.47755 8.04511 5.47755L8.04511 3.23598Z" fill="#F34C3A"/>
<path d="M16 8C16 9.58225 15.5308 11.129 14.6518 12.4446C13.7727 13.7602 12.5233 14.7855 11.0615 15.391C9.59966 15.9965 7.99112 16.155 6.43928 15.8463C4.88743 15.5376 3.46196 14.7757 2.34314 13.6569C1.22432 12.538 0.462399 11.1126 0.153717 9.56072C-0.154964 8.00887 0.00346308 6.40034 0.608965 4.93853C1.21447 3.47672 2.23985 2.22729 3.55544 1.34824C4.87103 0.469191 6.41775 -5.3443e-07 8 0L8 2.24337C6.86145 2.24337 5.74846 2.58099 4.80179 3.21354C3.85512 3.84608 3.11727 4.74514 2.68157 5.79703C2.24586 6.84892 2.13186 8.00638 2.35398 9.12306C2.5761 10.2397 3.12437 11.2655 3.92945 12.0706C4.73453 12.8756 5.76026 13.4239 6.87694 13.646C7.99361 13.8681 9.15108 13.7541 10.203 13.3184C11.2549 12.8827 12.1539 12.1449 12.7865 11.1982C13.419 10.2515 13.7566 9.13855 13.7566 8L16 8Z" fill="#784FEB"/>
<circle cx="8.06752" cy="7.93261" r="1.46067" fill="#EBB430"/>
</svg>
